<svg aria-hidden="true" style="position: absolute; width: 0; height: 0; overflow: hidden;" version="1.1" xmlns="http://www.w3.org/2000/svg" xmlns:xlink="http://www.w3.org/1999/xlink">
<defs>
<symbol id="icon-del" viewBox="0 0 30 32">
<path d="M27.977 5.263h-25.474c-0.307 0-0.602 0.122-0.819 0.339s-0.339 0.512-0.339 0.819c0 0.307 0.122 0.602 0.339 0.819s0.512 0.339 0.819 0.339h1.158v20.842c0 0.614 0.244 1.203 0.678 1.638s1.023 0.678 1.638 0.678h18.526c0.614 0 1.203-0.244 1.638-0.678s0.678-1.023 0.678-1.638v-20.842h1.158c0.307 0 0.602-0.122 0.819-0.339s0.339-0.512 0.339-0.819-0.122-0.602-0.339-0.819c-0.217-0.217-0.512-0.339-0.819-0.339zM24.503 28.421h-18.526v-20.842h18.526v20.842zM8.293 1.789c0-0.307 0.122-0.602 0.339-0.819s0.512-0.339 0.819-0.339h11.579c0.307 0 0.602 0.122 0.819 0.339s0.339 0.512 0.339 0.819-0.122 0.602-0.339 0.819c-0.217 0.217-0.512 0.339-0.819 0.339h-11.579c-0.307 0-0.602-0.122-0.819-0.339s-0.339-0.512-0.339-0.819z"></path>
</symbol>
<symbol id="icon-plus" viewBox="0 0 32 32">
<path fill="#fff" style="fill: var(--color2, #fff)" d="M32 16c0 0.354-0.141 0.693-0.391 0.943s-0.589 0.391-0.943 0.391h-13.333v13.333c0 0.354-0.141 0.693-0.391 0.943s-0.589 0.391-0.943 0.391c-0.354 0-0.693-0.141-0.943-0.391s-0.391-0.589-0.391-0.943v-13.333h-13.333c-0.354 0-0.693-0.141-0.943-0.391s-0.391-0.589-0.391-0.943c0-0.354 0.14-0.693 0.391-0.943s0.589-0.391 0.943-0.391h13.333v-13.333c0-0.354 0.141-0.693 0.391-0.943s0.589-0.391 0.943-0.391c0.354 0 0.693 0.14 0.943 0.391s0.391 0.589 0.391 0.943v13.333h13.333c0.354 0 0.693 0.141 0.943 0.391s0.391 0.589 0.391 0.943z"></path>
</symbol>
<symbol id="icon-yes" viewBox="0 0 44 32">
<path d="M43.779 4.12l-27.077 27.077c-0.157 0.157-0.344 0.282-0.549 0.367s-0.426 0.129-0.648 0.129c-0.222 0-0.443-0.044-0.648-0.129s-0.392-0.21-0.549-0.367l-11.846-11.846c-0.318-0.318-0.496-0.748-0.496-1.197s0.178-0.88 0.496-1.197c0.318-0.318 0.748-0.496 1.197-0.496s0.88 0.178 1.197 0.496l10.649 10.651 25.88-25.882c0.318-0.318 0.748-0.496 1.197-0.496s0.88 0.178 1.197 0.496 0.496 0.748 0.496 1.197c0 0.449-0.178 0.88-0.496 1.197z"></path>
</symbol>
</defs>
</svg>
